PathFileType	4	(X/Y/Z)	RBDS014static.trc
DataRate	CameraRate	NumFrames	NumMarkers	Units	OrigDataRate	OrigDataStartFrame	OrigNumFrames
150.000000	150.000000	4	48	mm	150.000000	0	150
Frame#	Time	L.Ankle			L.Ankle.Medial			L.ASIS			L.GTR			L.Heel.Bottom			L.Heel.Lateral			L.Heel.Top			L.HF			L.Iliac.Crest			L.Knee			L.Knee.Medial			L.MT1			L.MT2			L.MT5			L.PSIS			L.Shank.Bottom.Lateral			L.Shank.Bottom.Medial			L.Shank.Top.Lateral			L.Shank.Top.Medial			L.Thigh.Bottom.Lateral			L.Thigh.Bottom.Medial			L.Thigh.Top.Lateral			L.Thigh.Top.Medial			L.TT			R.Ankle			R.Ankle.Medial			R.ASIS			R.GTR			R.Heel.Bottom			R.Heel.Lateral			R.Heel.Top			R.HF			R.Iliac.Crest			R.Knee			R.Knee.Medial			R.MT1			R.MT2			R.MT5			R.PSIS			R.Shank.Bottom.Lateral			R.Shank.Bottom.Medial			R.Shank.Top.Lateral			R.Shank.Top.Medial			R.Thigh.Bottom.Lateral			R.Thigh.Bottom.Medial			R.Thigh.Top.Lateral			R.Thigh.Top.Medial			R.TT			
		X1	Y1	Z1	X2	Y2	Z2	X3	Y3	Z3	X4	Y4	Z4	X5	Y5	Z5	X6	Y6	Z6	X7	Y7	Z7	X8	Y8	Z8	X9	Y9	Z9	X10	Y10	Z10	X11	Y11	Z11	X12	Y12	Z12	X13	Y13	Z13	X14	Y14	Z14	X15	Y15	Z15	X16	Y16	Z16	X17	Y17	Z17	X18	Y18	Z18	X19	Y19	Z19	X20	Y20	Z20	X21	Y21	Z21	X22	Y22	Z22	X23	Y23	Z23	X24	Y24	Z24	X25	Y25	Z25	X26	Y26	Z26	X27	Y27	Z27	X28	Y28	Z28	X29	Y29	Z29	X30	Y30	Z30	X31	Y31	Z31	X32	Y32	Z32	X33	Y33	Z33	X34	Y34	Z34	X35	Y35	Z35	X36	Y36	Z36	X37	Y37	Z37	X38	Y38	Z38	X39	Y39	Z39	X40	Y40	Z40	X41	Y41	Z41	X42	Y42	Z42	X43	Y43	Z43	X44	Y44	Z44	X45	Y45	Z45	X46	Y46	Z46	X47	Y47	Z47	X48	Y48	Z48	

1	0	714.9256591796875	108.1188507080078	1042.28125	740.4290161132813	118.7415161132813	1127.963256835938	859.6319580078125	1133.569702148438	1110.665649414063	778.8916625976563	1022.796936035156	1053.53515625	643.4148559570313	41.51735687255859	1085.351928710938	665.9098510742188	65.25984954833984	1045.113159179688	652.9805908203125	92.17079162597656	1087.255126953125	777.3734741210938	523.7595825195313	1039.430297851563	782.3375244140625	1192.087768554688	1070.339721679688	786.5188598632813	596.7103881835938	1050.245971679688	781.0202026367188	576.5293579101563	1173.561645507813	876.788330078125	57.79359817504883	1132.562622070313	886.5901489257813	69.30023193359375	1088.672241210938	840.1096801757813	51.18068313598633	1013.355102539063	677.9440307617188	1150.08349609375	1184.676025390625	725.5933227539063	207.8798522949219	1031.488403320313	682.6044311523438	210.6270599365234	1066.324951171875	721.9237060546875	287.8371276855469	1021.659912109375	680.6115112304688	291.2188415527344	1056.13232421875	782.1000366210938	753.788330078125	1031.020141601563	720.6972045898438	748.4188232421875	1069.545532226563	767.208984375	863.5513305664063	1028.978271484375	712.0799560546875	858.6375732421875	1069.244995117188	831.2155151367188	494.39794921875	1097.263549804688	721.0119018554688	108.2290496826172	1417.653686523438	748.2710571289063	126.1333618164063	1332.478515625	861.71044921875	1142.227416992188	1357.149291992188	797.1588134765625	1032.288818359375	1412.257568359375	646.1596069335938	43.06510925292969	1374.241577148438	669.6054077148438	66.40411376953125	1412.308715820313	654.9727172851563	95.03939819335938	1371.780883789063	786.9724731445313	535.3984985351563	1420.805297851563	798.3595581054688	1208.40478515625	1382.595581054688	790.366455078125	606.2567749023438	1412.008544921875	787.2037963867188	582.3069458007813	1287.41845703125	879.369140625	58.64938354492188	1326.975219726563	890.1348876953125	72.50456237792969	1371.508544921875	846.9765625	51.6829948425293	1448.477905273438	685.992919921875	1158.738891601563	1278.770385742188	714.0213012695313	208.4079437255859	1422.810913085938	684.2019653320313	215.8258056640625	1381.820678710938	715.04833984375	292.5450439453125	1435.046630859375	682.8941650390625	295.9669799804688	1392.869018554688	809.5828247070313	736.214111328125	1428.956420898438	741.1453247070313	733.0801391601563	1403.372680664063	799.1925659179688	845.0380859375	1436.361572265625	734.5219116210938	842.7885131835938	1410.038696289063	837.5787353515625	499.9931335449219	1358.566772460938	
2	0.006666666666666667	714.9166259765625	108.1176605224609	1042.289916992188	740.4271850585938	118.7427368164063	1127.969970703125	859.61474609375	1133.559448242188	1110.66357421875	778.8836059570313	1022.794067382813	1053.521240234375	643.4170532226563	41.51530838012695	1085.347900390625	665.8994140625	65.25670623779297	1045.1162109375	652.9891357421875	92.17992401123047	1087.248779296875	777.3876953125	523.7501831054688	1039.430908203125	782.3058471679688	1192.06494140625	1070.330932617188	786.540283203125	596.6962280273438	1050.25439453125	781.0076904296875	576.5226440429688	1173.556884765625	876.7872314453125	57.78736114501953	1132.56640625	886.599609375	69.31169891357422	1088.677368164063	840.1154174804688	51.17746353149414	1013.355102539063	677.9207153320313	1150.082641601563	1184.664672851563	725.6072387695313	207.8682861328125	1031.484497070313	682.60888671875	210.6271362304688	1066.32470703125	721.927978515625	287.8331604003906	1021.658142089844	680.6124877929688	291.2193908691406	1056.123413085938	782.1095581054688	753.7825317382813	1031.017333984375	720.6837768554688	748.4093017578125	1069.542358398438	767.204833984375	863.5579833984375	1028.972534179688	712.06494140625	858.61767578125	1069.220458984375	831.2227783203125	494.3898620605469	1097.247924804688	721.014892578125	108.219108581543	1417.64501953125	748.2533569335938	126.1329879760742	1332.46484375	861.6929931640625	1142.219116210938	1357.139404296875	797.1350708007813	1032.281616210938	1412.259887695313	646.1665649414063	43.05139923095703	1374.234375	669.60791015625	66.40421295166016	1412.308715820313	654.9784545898438	95.02976226806641	1371.771362304688	786.9661865234375	535.3850708007813	1420.793701171875	798.33544921875	1208.394653320313	1382.600830078125	790.3479614257813	606.2449951171875	1411.991821289063	787.1906127929688	582.3101196289063	1287.406494140625	879.37060546875	58.66077423095703	1326.97314453125	890.1422119140625	72.50670623779297	1371.503784179688	846.9759521484375	51.69395446777344	1448.481811523438	685.9794921875	1158.738525390625	1278.764282226563	713.9998779296875	208.4087982177734	1422.794311523438	684.1911010742188	215.8220062255859	1381.813232421875	715.0371704101563	292.5315246582031	1435.0400390625	682.8857421875	295.9630126953125	1392.854125976563	809.563720703125	736.2052612304688	1428.947021484375	741.1270141601563	733.0726318359375	1403.363037109375	799.1817626953125	845.0302124023438	1436.363403320313	734.5158081054688	842.779052734375	1410.032104492188	837.5725708007813	499.9846801757813	1358.54833984375	
3	0.01333333333333333	714.9202880859375	108.1162872314453	1042.289428710938	740.431640625	118.7360458374023	1127.956176757813	859.5847778320313	1133.541625976563	1110.649658203125	778.8587646484375	1022.782165527344	1053.514770507813	643.4129638671875	41.52018356323242	1085.348510742188	665.9070434570313	65.25423431396484	1045.11181640625	652.98583984375	92.17521667480469	1087.238403320313	777.3978271484375	523.7395629882813	1039.42724609375	782.279541015625	1192.039916992188	1070.312377929688	786.5443725585938	596.6961059570313	1050.2509765625	781.0036010742188	576.5250854492188	1173.554443359375	876.7921142578125	57.78654861450195	1132.566772460938	886.6055297851563	69.30828857421875	1088.6796875	840.1179809570313	51.17588806152344	1013.352355957031	677.90087890625	1150.087280273438	1184.66015625	725.613525390625	207.8655853271484	1031.489501953125	682.61279296875	210.6210327148438	1066.317749023438	721.942138671875	287.8311767578125	1021.65576171875	680.6276245117188	291.2186889648438	1056.116333007813	782.1158447265625	753.7747192382813	1031.020629882813	720.6910400390625	748.3953857421875	1069.530639648438	767.195068359375	863.5443725585938	1028.962280273438	712.0485229492188	858.6168212890625	1069.204467773438	831.2296142578125	494.3926696777344	1097.252075195313	721.0059814453125	108.2293090820313	1417.644775390625	748.25927734375	126.1215286254883	1332.45849609375	861.6782836914063	1142.211059570313	1357.129638671875	797.1190795898438	1032.27685546875	1412.253784179688	646.157470703125	43.05915069580078	1374.237060546875	669.6140747070313	66.40006256103516	1412.303833007813	654.9658813476563	95.03141784667969	1371.7734375	786.95068359375	535.3751831054688	1420.783203125	798.3187866210938	1208.394653320313	1382.597290039063	790.342041015625	606.245361328125	1411.978637695313	787.1799926757813	582.2969970703125	1287.387939453125	879.3681030273438	58.66407012939453	1326.972045898438	890.140380859375	72.50652313232422	1371.5009765625	846.9735717773438	51.69947052001953	1448.472900390625	685.95751953125	1158.736572265625	1278.758544921875	713.9946899414063	208.4012451171875	1422.798095703125	684.1867065429688	215.8208465576172	1381.809936523438	715.0237426757813	292.5360717773438	1435.027587890625	682.8657836914063	295.965576171875	1392.847534179688	809.55712890625	736.1973876953125	1428.94970703125	741.1334228515625	733.0653076171875	1403.357666015625	799.1672973632813	845.018310546875	1436.35205078125	734.4887084960938	842.7659912109375	1410.037475585938	837.5576782226563	499.9911804199219	1358.5390625	
4	0.02	714.925537109375	108.1223754882813	1042.294921875	740.427734375	118.7343978881836	1127.968139648438	859.5811157226563	1133.529418945313	1110.640502929688	778.8610229492188	1022.786560058594	1053.501220703125	643.4083251953125	41.52096176147461	1085.351318359375	665.9129028320313	65.25128936767578	1045.114013671875	652.9793090820313	92.18045806884766	1087.241577148438	777.4190063476563	523.7413940429688	1039.4248046875	782.2208862304688	1192.011962890625	1070.302612304688	786.5507202148438	596.6974487304688	1050.244140625	781.0098876953125	576.5162353515625	1173.564453125	876.7877807617188	57.78009796142578	1132.558837890625	886.5958251953125	69.30169677734375	1088.679321289063	840.111328125	51.18535614013672	1013.351989746094	677.8819580078125	1150.091064453125	1184.646728515625	725.6166381835938	207.8572845458984	1031.4931640625	682.6087646484375	210.619873046875	1066.310913085938	721.9427490234375	287.8227233886719	1021.6513671875	680.6201782226563	291.2110595703125	1056.119262695313	782.1201171875	753.7674560546875	1031.012939453125	720.6953125	748.396728515625	1069.521606445313	767.19140625	863.540771484375	1028.958862304688	712.0503540039063	858.6074829101563	1069.19775390625	831.22900390625	494.3800048828125	1097.257202148438	721.0079345703125	108.227912902832	1417.636352539063	748.2564086914063	126.1308746337891	1332.452514648438	861.6588745117188	1142.210205078125	1357.120849609375	797.0885009765625	1032.277465820313	1412.247314453125	646.1568603515625	43.05949783325195	1374.237670898438	669.5995483398438	66.39608001708984	1412.284912109375	654.9695434570313	95.03436279296875	1371.768798828125	786.934814453125	535.3778076171875	1420.7744140625	798.3082275390625	1208.396606445313	1382.596313476563	790.3228759765625	606.2308349609375	1411.973510742188	787.1758422851563	582.2916259765625	1287.388793945313	879.3695678710938	58.66012954711914	1326.970947265625	890.1373901367188	72.50469970703125	1371.496826171875	846.9808349609375	51.69308471679688	1448.48291015625	685.9420166015625	1158.75048828125	1278.75439453125	713.9912109375	208.4008483886719	1422.789916992188	684.1760864257813	215.8189697265625	1381.803100585938	715.0132446289063	292.5433044433594	1435.02197265625	682.8671264648438	295.9632263183594	1392.840576171875	809.5441284179688	736.1904907226563	1428.948120117188	741.1190795898438	733.05810546875	1403.3515625	799.15185546875	845.0177612304688	1436.349487304688	734.4677124023438	842.7662963867188	1410.041259765625	837.5402221679688	499.9707641601563	1358.52294921875	
